<svg xmlns="http://www.w3.org/2000/svg" xmlns:xlink="http://www.w3.org/1999/xlink" width="500" zoomAndPan="magnify" viewBox="0 0 375 374.999991" height="500" preserveAspectRatio="xMidYMid meet" version="1.0"><defs><g/></defs><g fill="#000000" fill-opacity="1"><g transform="translate(21.697287, 268.150859)"><g><path d="M 127.296875 -107.421875 L 127.296875 0 L 111.515625 0 L 111.515625 -72.125 L 84.796875 -72.125 C 79.472656 -72.125 75.769531 -72.320312 73.6875 -72.71875 C 78.363281 -68.820312 82.128906 -64.269531 84.984375 -59.0625 C 87.847656 -53.863281 89.28125 -48.34375 89.28125 -42.5 C 89.28125 -36.519531 87.945312 -31.515625 85.28125 -27.484375 C 82.625 -23.453125 79.117188 -20.460938 74.765625 -18.515625 C 70.410156 -16.566406 65.632812 -15.59375 60.4375 -15.59375 C 53.550781 -15.59375 46.988281 -17.570312 40.75 -21.53125 C 34.507812 -25.5 28.53125 -32.066406 22.8125 -41.234375 C 17.09375 -50.398438 11.503906 -62.710938 6.046875 -78.171875 L 19.890625 -83.046875 C 25.867188 -65.628906 32.101562 -52.40625 38.59375 -43.375 C 45.09375 -34.34375 52.113281 -29.828125 59.65625 -29.828125 C 63.8125 -29.828125 67.222656 -30.929688 69.890625 -33.140625 C 72.554688 -35.347656 73.890625 -39.050781 73.890625 -44.25 C 73.890625 -49.96875 71.90625 -55.328125 67.9375 -60.328125 C 63.976562 -65.335938 59.070312 -69.726562 53.21875 -73.5 L 58.875 -85.96875 L 111.515625 -85.96875 L 111.515625 -107.421875 L 0 -107.421875 L 0 -121.265625 L 147.578125 -121.265625 L 147.578125 -107.421875 Z M 127.296875 -107.421875 "/></g></g></g><g fill="#000000" fill-opacity="1"><g transform="translate(166.344536, 268.150859)"><g><path d="M -36.0625 -119.890625 C -38.269531 -124.441406 -39.957031 -128.796875 -41.125 -132.953125 C -42.300781 -137.117188 -42.890625 -141.410156 -42.890625 -145.828125 C -42.890625 -154.140625 -40.160156 -161.023438 -34.703125 -166.484375 C -29.242188 -171.941406 -21.640625 -174.671875 -11.890625 -174.671875 C -4.085938 -174.671875 2.410156 -172.816406 7.609375 -169.109375 C 12.804688 -165.410156 17.285156 -159.628906 21.046875 -151.765625 C 24.816406 -143.898438 28.394531 -133.734375 31.78125 -121.265625 L 53.21875 -121.265625 L 53.21875 -107.421875 L 33.140625 -107.421875 L 33.140625 0 L 17.34375 0 L 17.34375 -107.421875 L 0 -107.421875 L 0 -121.265625 L 16.953125 -121.265625 C 13.316406 -134.773438 9.515625 -144.75 5.546875 -151.1875 C 1.585938 -157.625 -3.960938 -160.84375 -11.109375 -160.84375 C -16.304688 -160.84375 -20.269531 -159.25 -23 -156.0625 C -25.726562 -152.875 -27.09375 -148.488281 -27.09375 -142.90625 C -27.09375 -138.476562 -26.441406 -134.476562 -25.140625 -130.90625 C -23.847656 -127.332031 -22.289062 -123.660156 -20.46875 -119.890625 Z M -36.0625 -119.890625 "/></g></g></g><path stroke-linecap="butt" transform="matrix(0.749962, 0.00759012, -0.00759012, 0.749962, 203.523711, 147.711566)" fill="none" stroke-linejoin="miter" d="M 0.00217105 8.999601 L 187.261778 9.000336 " stroke="#000000" stroke-width="18" stroke-opacity="1" stroke-miterlimit="4"/><g fill="#000000" fill-opacity="1"><g transform="translate(199.845619, 256.557194)"><g><path d="M 0 -94.445312 C 5.820312 -94.445312 8.871094 -89.199219 13.070312 -78.703125 L 43.597656 1.90625 L 44.550781 1.90625 L 75.078125 -78.703125 C 79.085938 -89.292969 82.328125 -94.445312 88.148438 -94.445312 L 88.148438 -95.398438 L 61.152344 -95.398438 L 61.152344 -94.445312 C 74.601562 -94.445312 74.410156 -84.429688 71.929688 -76.796875 C 64.585938 -54.1875 55.617188 -31.671875 47.699219 -9.160156 L 21.941406 -77.082031 C 18.316406 -86.71875 17.839844 -94.445312 31.289062 -94.445312 L 31.289062 -95.398438 L 0 -95.398438 Z M 0 -94.445312 "/></g></g></g><g fill="#000000" fill-opacity="1"><g transform="translate(287.989055, 256.557194)"><g><path d="M 2.863281 -16.695312 C 2.863281 -6.773438 9.160156 1.90625 20.226562 1.90625 C 39.210938 1.90625 50.371094 -14.882812 50.371094 -38.0625 C 50.371094 -42.644531 50.179688 -46.460938 49.796875 -49.511719 L 61.628906 -18.316406 C 65.253906 -8.679688 65.730469 -0.953125 52.277344 -0.953125 L 52.277344 0 L 83.570312 0 L 83.570312 -0.953125 C 77.75 -0.953125 74.699219 -6.199219 70.5 -16.695312 L 39.972656 -97.308594 L 39.019531 -97.308594 C 33.007812 -81.472656 29.476562 -72.027344 23.660156 -56.667969 C 22.703125 -54.1875 23.183594 -51.609375 25.851562 -51.609375 C 31.289062 -51.609375 34.152344 -61.628906 38.730469 -61.628906 C 39.972656 -61.628906 41.023438 -60.863281 41.023438 -59.050781 C 41.023438 -49.128906 2.863281 -40.164062 2.863281 -16.695312 Z M 10.972656 -18.507812 C 10.972656 -42.070312 42.070312 -46.078125 42.070312 -58.863281 C 42.070312 -61.339844 40.734375 -62.582031 38.921875 -62.582031 C 33.867188 -62.582031 30.335938 -52.566406 25.949219 -52.566406 C 24.421875 -52.566406 23.660156 -53.710938 24.898438 -57.046875 L 35.871094 -86.242188 L 47.414062 -55.808594 C 49.128906 -50.179688 49.417969 -44.933594 49.417969 -37.875 C 49.417969 -22.226562 41.878906 -2.671875 25.949219 -2.671875 C 16.597656 -2.671875 10.972656 -9.539062 10.972656 -18.507812 Z M 10.972656 -18.507812 "/></g></g></g></svg>